<svg width="80" height="80" viewBox="0 0 80 80" fill="none" xmlns="http://www.w3.org/2000/svg">
<path d="M0 40C0 17.9086 17.9086 0 40 0C62.0914 0 80 17.9086 80 40C80 62.0914 62.0914 80 40 80C17.9086 80 0 62.0914 0 40Z" fill="#0FDD61"/>
<path d="M44.5 27.5V32.5H47C49.7344 32.5 52 34.7656 52 37.5V55C52 57.7344 49.7344 60 47 60H27C24.2656 60 22 57.7344 22 55V37.5C22 34.7656 24.2656 32.5 27 32.5H39.5V27.5C39.5 21.9531 43.9531 17.5 49.5 17.5C55.0469 17.5 59.5 21.9531 59.5 27.5V30C59.5 31.4062 58.4062 32.5 57 32.5C55.5938 32.5 54.5 31.4062 54.5 30V27.5C54.5 24.7656 52.2344 22.5 49.5 22.5C46.7656 22.5 44.5 24.7656 44.5 27.5Z" fill="white"/>
</svg>
