<svg width="104" height="36" viewBox="0 0 104 36" fill="none" xmlns="http://www.w3.org/2000/svg">
<g clip-path="url(#clip0_48825_4499)">
<path d="M75.6757 2.80249H98.2703C101.492 2.80249 104.108 5.41087 104.108 8.62285V20.0954C104.108 23.3074 101.492 25.9158 98.2703 25.9158H81.5135C78.2919 25.9158 75.6757 23.3074 75.6757 20.0954V2.80249Z" fill="white"/>
<path d="M11.9805 21.1624C11.2368 22.2942 9.95459 23.04 8.49945 23.0465C8.49945 23.0465 8.45837 23.0616 8.43243 23.0616C8.19891 23.0594 7.7427 23.0249 7.7427 23.0249C7.00756 22.8956 6.33945 22.5744 5.79459 22.1152C5.74053 22.07 5.68864 22.0225 5.63675 21.9751C5.61297 21.9536 5.58918 21.932 5.5654 21.9061C5.54161 21.8846 5.51783 21.8609 5.49405 21.835C5.47026 21.8113 5.44648 21.7876 5.42486 21.7617C5.40107 21.738 5.37945 21.7121 5.35783 21.6884C5.21297 21.5246 5.07891 21.3521 4.96215 21.1667C4.94702 21.1409 4.92972 21.1171 4.91459 21.0913C4.87567 21.0266 4.83675 20.9598 4.80215 20.893C4.7827 20.8606 4.7654 20.8261 4.75026 20.7916C4.71567 20.7227 4.68324 20.6558 4.65297 20.5847C4.63783 20.5502 4.6227 20.5157 4.60972 20.4791C4.59459 20.4446 4.58161 20.4101 4.56864 20.3756C4.55351 20.3368 4.54053 20.298 4.52756 20.2613C4.51675 20.2268 4.50378 20.1902 4.49297 20.1557C4.47999 20.1191 4.46918 20.0824 4.46053 20.0458C4.45188 20.0156 4.44324 19.9854 4.43675 19.9531C4.41729 19.8755 4.39783 19.7957 4.3827 19.7159C4.37621 19.6815 4.36972 19.647 4.36324 19.6125C4.35891 19.5823 4.35459 19.55 4.35026 19.5198C4.34594 19.5004 4.34378 19.481 4.34161 19.4616C4.33729 19.4292 4.33297 19.3948 4.32864 19.3624C4.32864 19.356 4.32864 19.3495 4.32864 19.343H4.35459L4.59459 3.95571C4.60756 2.78086 3.66486 1.81942 2.48864 1.80433C1.31026 1.7914 0.345939 2.73128 0.330804 3.90397L0.09729 18.8041C0.09729 18.8041 0.09729 18.8149 0.09729 18.8213C0.09729 18.8321 0.09729 18.8429 0.09729 18.8515V19.2891C0.0994522 19.343 0.108101 19.3754 0.114587 19.4573C0.123236 19.5974 0.136209 19.7375 0.151344 19.8755C0.159993 19.9445 0.168641 20.0134 0.17729 20.0824C0.216209 20.3562 0.265939 20.6278 0.330804 20.893C0.348101 20.9598 0.363236 21.0266 0.380533 21.0913C0.39783 21.1581 0.41729 21.2228 0.436749 21.2874C0.456209 21.3521 0.475668 21.4168 0.49729 21.4815C0.510263 21.5267 0.525398 21.5698 0.540533 21.613C0.568641 21.6992 0.598912 21.7833 0.631344 21.8652C0.655128 21.9277 0.678912 21.9902 0.704858 22.0506C1.18053 23.2254 1.91567 24.2666 2.84107 25.1073C2.82594 25.1203 5.58269 27.2328 8.40648 27.2415C8.42594 27.2242 8.45837 27.2415 8.45837 27.2415C10.5989 27.2501 12.5578 26.4589 14.0454 25.1461C14.1535 25.0513 14.3438 24.8659 14.5124 24.7064L12.147 20.8757C12.0951 20.9706 12.0476 21.0676 11.9892 21.1581L11.9805 21.1624Z" fill="white"/>
<path d="M52.6443 10.8517C51.5135 11.8929 50.1578 12.628 48.694 13.0117C49.8767 13.7317 50.6767 15.0208 50.7005 16.5039C50.7394 18.804 48.8973 20.701 46.5903 20.7398C44.2811 20.7786 42.3784 18.9441 42.3416 16.6419C42.3048 14.3611 44.1081 12.4792 46.387 12.4081C46.387 12.4081 46.4281 12.393 46.454 12.3908C48.5881 12.3564 50.5254 11.5286 51.9848 10.1942C52.0043 10.177 52.0216 10.1597 52.0411 10.1425C52.0411 10.1425 52.173 10.0067 52.3589 9.80833C52.1167 9.513 51.8746 9.21552 51.6324 8.92019C50.973 8.11396 50.3135 7.30989 49.654 6.50366C49.373 6.87875 48.653 7.47157 48.6594 7.47372C48.3957 7.65264 48.1103 7.80138 47.8075 7.91564C47.3643 8.08378 46.8865 8.18078 46.3848 8.18941C46.3589 8.18941 46.3178 8.20665 46.3178 8.20665C43.8378 8.26701 41.6303 9.39444 40.1362 11.1427C38.854 12.6387 38.0951 14.5896 38.1297 16.7108H38.1146C38.1146 16.754 38.1146 16.7949 38.1146 16.838C38.1146 16.8704 38.1146 16.9027 38.1124 16.935C38.1124 16.9566 38.1124 16.9803 38.1103 17.004C38.1059 17.0752 38.1016 17.1441 38.093 17.2153C38.0886 17.2562 38.0843 17.2993 38.0778 17.3403L38.3827 33.9262C38.4021 35.101 39.373 36.0366 40.5492 36.0172C41.7275 35.9978 42.6659 35.0299 42.6465 33.8572L42.4821 23.9087C43.7211 24.5877 45.1481 24.9671 46.6616 24.9434C51.2973 24.868 54.9903 21.0589 54.9146 16.4392C54.8778 14.2749 54.0216 12.3175 52.6465 10.856L52.6443 10.8517Z" fill="white"/>
<path d="M71.2238 14.9713C71.1784 14.9239 71.1308 14.8743 71.0832 14.8269C71.0832 14.8269 71.0811 14.8247 71.0789 14.8226C69.9092 15.8379 68.5059 16.5557 66.9903 16.9308C68.2119 17.6293 69.0378 18.886 69.0616 20.3304C69.0984 22.5701 67.1935 24.4197 64.8065 24.4585C62.4195 24.4973 60.4519 22.7124 60.4151 20.4726C60.3784 18.2523 62.2465 16.4178 64.6032 16.3445C64.6032 16.3445 64.6465 16.3294 64.6724 16.3294C66.8735 16.2928 68.8713 15.4908 70.3805 14.1974C70.3849 14.1931 70.3892 14.1888 70.3957 14.1845C70.4151 14.1694 70.4346 14.1522 70.454 14.1349C70.454 14.1349 71.0573 13.5938 71.0746 13.6089C72.3178 12.2724 73.0962 10.5543 73.2 8.6724C73.2 8.64653 73.2 8.6185 73.2022 8.59263C73.2086 8.43311 73.2216 8.27575 73.2173 8.11407C73.2173 8.09898 73.2173 8.08389 73.2173 8.07096C73.2173 8.05587 73.2173 8.03862 73.2173 8.02353C73.2108 7.67216 73.1827 7.32725 73.1308 6.98665C73.1308 6.97587 73.1265 6.96724 73.1265 6.95646C73.1178 6.90042 73.107 6.84437 73.0984 6.78832C73.094 6.7603 73.0876 6.73228 73.0832 6.70425C73.0768 6.66761 73.0703 6.6288 73.0616 6.59215C73.0551 6.55119 73.0443 6.51239 73.0357 6.47143C73.0313 6.44557 73.0249 6.42186 73.0205 6.39599C73.0097 6.34641 72.9967 6.29683 72.9838 6.24725C72.9795 6.23216 72.9773 6.21706 72.973 6.20413C72.9578 6.14593 72.9427 6.08988 72.9254 6.03168C72.9254 6.02521 72.9211 6.01874 72.9211 6.01227C72.9016 5.94976 72.8843 5.88725 72.8649 5.82473C72.8649 5.82473 72.8649 5.82473 72.8649 5.82257C72.6573 5.17156 72.3676 4.55503 72.0043 3.98377C70.6249 1.81299 68.1989 0.304011 65.3881 0.0539513C65.0659 0.0259274 64.7395 0.0129924 64.4086 0.0194595C61.8162 0.0625733 59.3405 1.24605 57.9438 2.88653C57.9913 2.83263 57.7557 3.04605 57.5762 3.41251C56.5319 4.7318 55.9005 6.35503 55.8659 8.11192C55.8638 8.20677 55.8638 8.30377 55.8659 8.40078C55.9005 10.4444 56.3762 12.2552 57.7254 13.6628C57.7622 13.7016 57.7989 13.7404 57.8378 13.7771C58.6638 13.0571 59.6238 12.4686 60.6789 12.0547C61.1459 11.8714 61.3189 11.2851 61.0076 10.8949C60.4649 10.2116 60.24 9.32557 60.2249 8.32964C60.2032 7.00174 60.8627 5.8118 61.9005 5.05515C62.614 4.53347 63.5113 4.167 64.4843 4.15191C64.4843 4.15191 65.1416 4.13467 65.4551 4.19719C65.7881 4.26186 66.1059 4.36533 66.4043 4.49683C66.7481 4.64988 67.2389 5.07455 67.2389 5.07455C68.2054 5.79455 68.8368 6.89611 68.8713 8.14425C68.8778 9.55192 68.1146 10.8022 66.9513 11.5373C66.9578 11.5373 66.9622 11.5395 66.9686 11.5416C66.6962 11.7162 66.4 11.8607 66.0886 11.9728C65.6303 12.1366 65.1351 12.2314 64.6184 12.2401C64.6076 12.2401 64.5492 12.2724 64.5492 12.2724C59.853 12.4147 56.1276 16.0944 56.2011 20.5481C56.2746 25.0427 60.1924 28.6211 64.947 28.5435C65.1697 28.5392 65.3903 28.5284 65.6086 28.509C65.667 28.5047 65.7232 28.4983 65.7816 28.4918C68.6184 28.1728 71.0292 26.5732 72.3503 24.3356C73.0616 23.1284 73.4573 21.738 73.4335 20.2614C73.3989 18.2286 72.5751 16.3811 71.2368 14.9756L71.2238 14.9713Z" fill="white"/>
<path d="M27.3254 23.3482C27.3362 23.2836 27.3449 23.2167 27.3557 23.1499C27.3557 23.1499 27.3557 23.1456 27.3557 23.1434C25.8357 22.833 24.413 22.1561 23.1935 21.1839C23.3795 22.5765 22.88 23.9928 21.7427 24.8895C19.9806 26.28 17.3492 25.8919 15.8681 24.0251C14.387 22.1561 14.6162 19.5154 16.3784 18.1271C18.1254 16.7497 20.7222 17.1161 22.2097 18.9398C22.2097 18.9398 22.2487 18.9636 22.2638 18.9851C23.6281 20.7075 25.4811 21.8026 27.4292 22.2122C27.4357 22.2122 27.4422 22.2143 27.4487 22.2165C27.4724 22.223 27.4984 22.2273 27.5243 22.2316C27.5243 22.2316 28.32 22.3803 28.32 22.404C30.1384 22.5786 31.9827 22.1497 33.546 21.0912C33.5676 21.0761 33.5892 21.0589 33.6108 21.0459C33.7427 20.9554 33.8746 20.8692 34.0022 20.7679C34.013 20.7592 34.026 20.7506 34.0368 20.7398C34.0497 20.7312 34.0627 20.7204 34.0757 20.7118C34.3525 20.4941 34.6097 20.2613 34.8476 20.0134C34.8541 20.0069 34.8606 19.9983 34.8692 19.9918C34.9103 19.9509 34.947 19.9077 34.986 19.8668C35.0054 19.8452 35.0249 19.8237 35.0443 19.8021C35.0703 19.7741 35.0962 19.7461 35.12 19.7159C35.1481 19.6857 35.1741 19.6534 35.2 19.621C35.2173 19.6016 35.2346 19.5822 35.2497 19.5628C35.2822 19.524 35.3146 19.4831 35.347 19.4421C35.3557 19.4292 35.3665 19.4184 35.3752 19.4055C35.4119 19.358 35.4487 19.3106 35.4833 19.2632C35.4876 19.2567 35.4919 19.2524 35.4962 19.2481C35.5352 19.1964 35.5719 19.1425 35.6108 19.0886C35.6108 19.0886 35.6108 19.0886 35.6108 19.0864C36.0043 18.5281 36.32 17.9224 36.5535 17.2886C37.4443 14.8764 37.1762 12.0395 35.6692 9.66176C35.4962 9.39014 35.3081 9.12283 35.1027 8.86415C33.4941 6.83565 31.0465 5.59397 28.893 5.48403C28.9643 5.48835 28.5384 5.43661 28.2443 5.46894C26.5579 5.44307 24.8865 5.97337 23.466 7.01026C23.3881 7.06631 23.3103 7.12451 23.2346 7.18487C21.6281 8.45241 20.4714 9.92907 20.1687 11.8519C20.16 11.9058 20.1514 11.9576 20.1449 12.0093C21.2195 12.227 22.2724 12.6301 23.2433 13.2143C23.6735 13.473 24.2443 13.2531 24.3676 12.7703C24.5838 11.9252 25.1525 11.2095 25.9373 10.593C26.9816 9.76955 28.3308 9.56907 29.5633 9.93122C30.4108 10.1791 31.2065 10.6965 31.8119 11.4574C31.8119 11.4574 32.266 11.9382 32.4065 12.2249C32.5557 12.5288 32.6681 12.8414 32.7438 13.1604C32.8303 13.5247 32.7892 14.1715 32.7892 14.1715C32.8022 15.3743 32.307 16.5449 31.3341 17.3274C30.2162 18.1875 28.7568 18.3427 27.4638 17.8663C27.466 17.8728 27.4681 17.8771 27.4703 17.8836C27.1654 17.7715 26.8714 17.627 26.5925 17.4481C26.1838 17.1851 25.8076 16.851 25.4854 16.4457C25.4789 16.4371 25.4184 16.4091 25.4184 16.4091C22.4541 12.7746 17.2606 12.0567 13.7557 14.8182C10.2184 17.6055 9.74272 22.8804 12.6941 26.6012C12.8324 26.7758 12.9752 26.9439 13.1243 27.1034C13.1633 27.1465 13.2022 27.1897 13.2433 27.2285C15.2195 29.2828 17.9589 30.2206 20.5449 29.908C21.9395 29.7398 23.2865 29.2074 24.4497 28.2934C26.0497 27.0323 27.0206 25.256 27.3297 23.3439L27.3254 23.3482Z" fill="white"/>
<path d="M87.2627 21.5633V7.30986L87.5157 7.03394H93.427C93.6562 7.03394 95.094 7.49956 95.4162 7.62675C100.666 9.72208 100.781 18.1314 95.8832 20.7441C93.9135 21.7939 92.6984 21.4921 90.7265 21.5503C89.5762 21.5848 88.4238 22.0246 87.2627 21.5633ZM90.6422 10.1597V18.3448C91.0119 18.776 91.8724 18.666 92.3978 18.6014C95.2086 18.2521 96.4951 15.3872 95.6195 12.5568C94.8886 10.192 92.6205 10.0282 90.6422 10.1597Z" fill="#0B4E91"/>
<path d="M84.7308 21.5633H81.1827V7.30986L81.4357 7.03394H84.4757L84.7308 7.30986V21.5633Z" fill="#0B4E91"/>
</g>
<defs>
<clipPath id="clip0_48825_4499">
<rect width="104" height="36" fill="white"/>
</clipPath>
</defs>
</svg>
