<svg width="96" height="96" viewBox="0 0 96 96" fill="none" xmlns="http://www.w3.org/2000/svg">
<rect width="96" height="96" rx="48" fill="black" fill-opacity="0.2"/>
<path d="M43 35.5V40.5H53V35.5C53 32.7656 50.7344 30.5 48 30.5C45.2656 30.5 43 32.7656 43 35.5ZM38 40.5V35.5C38 29.9531 42.4531 25.5 48 25.5C53.5469 25.5 58 29.9531 58 35.5V40.5C60.7344 40.5 63 42.7656 63 45.5V63C63 65.7344 60.7344 68 58 68H38C35.2656 68 33 65.7344 33 63V45.5C33 42.7656 35.2656 40.5 38 40.5Z" fill="#65A3E7"/>
</svg>
